<svg width="321" height="52" fill="none" xmlns="http://www.w3.org/2000/svg"><path d="M42.7 38.79c-2.086 0-3.625-.547-4.617-1.642-.958-1.129-1.437-2.514-1.437-4.156 0-.718.086-1.522.257-2.412.17-.923.342-1.813.513-2.668.205-.855.342-1.402.41-1.642.274-1.197.53-2.377.77-3.54.24-1.163.36-2.104.36-2.822 0-1.745-.616-2.617-1.848-2.617-.855 0-1.625.41-2.309 1.232-.65.82-1.18 1.881-1.59 3.18a1981.916 1981.916 0 0 0-3.13 16.779H22.69l7.03-32.735c-1.198-.103-3.455-.394-6.773-.873l-7.235 33.608H8.324l7.337-34.07c-3.25.137-5.78.975-7.594 2.515-1.813 1.539-2.72 4.19-2.72 7.953 0 1.265.12 2.155.36 2.668.24.479.36.752.36.82-1.848 0-3.233-.376-4.157-1.128-.89-.787-1.334-2.07-1.334-3.848 0-2.395.65-4.601 1.95-6.62 1.3-2.017 3.3-3.642 6.003-4.874C11.23.667 14.6.051 18.637.051c.684 0 2.138.154 4.361.462 4.07.582 7.235.872 9.492.872 2.942 0 5.011-.41 6.209-1.231-.513.958-.94 1.864-1.283 2.72-.308.854-.701 2.257-1.18 4.207-.479 1.915-1.095 4.754-1.847 8.517 1.744-1.984 3.78-2.976 6.106-2.976 1.744 0 3.13.479 4.156 1.437 1.026.958 1.539 2.411 1.539 4.361 0 .992-.12 2.104-.36 3.335a89.214 89.214 0 0 1-1.026 4.413 143.33 143.33 0 0 0-.77 3.13c-.204.992-.307 1.778-.307 2.36 0 .684.154 1.214.462 1.59.308.377.838.565 1.59.565 1.027 0 1.847-.36 2.463-1.078.616-.752 1.232-1.898 1.847-3.437h2.155c-1.265 3.762-2.736 6.294-4.412 7.593-1.642 1.266-3.352 1.899-5.131 1.899Z" fill="#111"/><path d="M57.309 38.79c-2.497 0-4.447-.65-5.85-1.95-1.402-1.334-2.103-3.404-2.103-6.208 0-2.36.462-4.96 1.385-7.8.924-2.838 2.429-5.284 4.515-7.337 2.087-2.086 4.738-3.13 7.953-3.13 3.763 0 5.644 1.642 5.644 4.926 0 1.916-.547 3.677-1.642 5.285-1.094 1.608-2.548 2.908-4.36 3.9a14.318 14.318 0 0 1-5.799 1.642c-.068.752-.102 1.265-.102 1.539 0 2.839 1.06 4.258 3.18 4.258.959 0 1.985-.256 3.08-.77a12.42 12.42 0 0 0 2.975-1.949c-.923 5.062-3.882 7.594-8.876 7.594Zm.102-13.135c1.3-.035 2.514-.462 3.643-1.283a9.038 9.038 0 0 0 2.771-3.13c.718-1.3 1.078-2.651 1.078-4.053 0-1.403-.428-2.104-1.283-2.104-1.197 0-2.395 1.095-3.592 3.284-1.163 2.155-2.035 4.583-2.617 7.286ZM92.713 3.438c-2.43.923-4.31 2.36-5.644 4.31-1.335 1.915-2.002 4.276-2.002 7.08 0 1.266.12 2.155.36 2.668.24.48.359.753.359.821-1.847 0-3.233-.376-4.156-1.128-.89-.787-1.334-2.07-1.334-3.849 0-2.189.889-4.31 2.668-6.362 1.813-2.087 4.122-3.763 6.927-5.028C92.695.65 95.5 0 98.305 0c.48 0 1.163.034 2.053.103l.461 31.555L111.594.257h3.592l-14.264 38.225h-7.388l-.822-35.044Zm26.179 35.352c-2.531 0-4.498-.65-5.9-1.95-1.403-1.334-2.104-3.404-2.104-6.208 0-2.36.462-4.96 1.385-7.8.924-2.838 2.429-5.284 4.516-7.337 2.086-2.086 4.737-3.13 7.952-3.13 3.763 0 5.645 1.642 5.645 4.926 0 1.916-.548 3.677-1.642 5.285-1.095 1.608-2.549 2.908-4.362 3.9a14.315 14.315 0 0 1-5.798 1.642c-.068 1.026-.102 1.71-.102 2.052 0 1.676.291 2.822.872 3.438.582.581 1.522.872 2.822.872 1.847 0 3.421-.428 4.72-1.283 1.335-.855 2.788-2.155 4.362-3.9h1.744c-3.797 6.329-8.5 9.493-14.11 9.493Zm.103-13.135c1.265-.069 2.463-.514 3.592-1.334a9.035 9.035 0 0 0 2.77-3.13c.719-1.266 1.078-2.6 1.078-4.002 0-1.403-.428-2.104-1.283-2.104-1.231 0-2.446 1.077-3.643 3.232-1.163 2.155-2.001 4.601-2.514 7.338Z" fill="#111"/><path d="M140.329 51.31c-1.642 0-3.01-.428-4.105-1.284-1.095-.855-1.642-2.086-1.642-3.694 0-1.95.787-3.523 2.36-4.72 1.574-1.163 3.575-2.138 6.003-2.925l.616-2.72c-1.744 1.882-3.797 2.823-6.157 2.823-1.95 0-3.574-.667-4.874-2.001-1.3-1.334-1.95-3.42-1.95-6.26 0-2.531.496-5.182 1.488-7.953 1.026-2.805 2.531-5.165 4.515-7.08 2.018-1.95 4.413-2.925 7.183-2.925 1.403 0 2.446.24 3.13.718.684.479 1.026 1.112 1.026 1.899v.307l.565-2.668h7.388l-5.079 23.808c1.642-.547 2.959-1.368 3.951-2.463s1.83-2.72 2.514-4.874h2.155c-.924 3.044-2.172 5.284-3.746 6.721-1.573 1.403-3.352 2.36-5.336 2.873l-.77 3.695c-.684 3.318-1.864 5.592-3.54 6.824-1.676 1.265-3.575 1.898-5.695 1.898Zm.41-17.497c.787 0 1.591-.36 2.412-1.078.821-.718 1.385-1.693 1.693-2.924l2.617-12.16c0-.411-.171-.822-.513-1.232-.343-.445-.873-.667-1.591-.667-1.368 0-2.6.804-3.694 2.411-1.095 1.574-1.95 3.49-2.566 5.747-.615 2.224-.923 4.19-.923 5.9 0 1.711.239 2.806.718 3.284a2.612 2.612 0 0 0 1.847.719Zm-1.59 13.494c.581 0 1.145-.393 1.693-1.18.547-.787.975-1.916 1.282-3.386l.308-1.488c-3.352 1.231-5.028 2.685-5.028 4.36 0 .446.154.839.462 1.181.308.342.735.513 1.283.513Z" fill="#111"/><path d="M166.334 51.31c-1.642 0-3.01-.428-4.105-1.284-1.094-.855-1.642-2.086-1.642-3.694 0-1.95.787-3.523 2.361-4.72 1.573-1.163 3.574-2.138 6.003-2.925l.616-2.72c-1.745 1.882-3.797 2.823-6.158 2.823-1.949 0-3.574-.667-4.874-2.001-1.3-1.334-1.95-3.42-1.95-6.26 0-2.531.496-5.182 1.488-7.953 1.026-2.805 2.531-5.165 4.515-7.08 2.019-1.95 4.413-2.925 7.184-2.925 1.402 0 2.445.24 3.13.718.684.479 1.026 1.112 1.026 1.899v.307l.564-2.668h7.389l-5.08 23.808c1.642-.547 2.959-1.368 3.951-2.463s1.83-2.72 2.514-4.874h2.155c-.924 3.044-2.172 5.284-3.746 6.721-1.573 1.403-3.352 2.36-5.336 2.873l-.769 3.695c-.684 3.318-1.865 5.592-3.541 6.824-1.676 1.265-3.574 1.898-5.695 1.898Zm.41-17.497c.787 0 1.591-.36 2.412-1.078.821-.718 1.385-1.693 1.693-2.924l2.617-12.16c0-.411-.171-.822-.513-1.232-.342-.445-.872-.667-1.591-.667-1.368 0-2.599.804-3.694 2.411-1.095 1.574-1.95 3.49-2.565 5.747-.616 2.224-.924 4.19-.924 5.9 0 1.711.239 2.806.718 3.284a2.612 2.612 0 0 0 1.847.719Zm-1.59 13.494c.581 0 1.146-.393 1.693-1.18.547-.787.975-1.916 1.283-3.386l.308-1.488c-3.353 1.231-5.029 2.685-5.029 4.36 0 .446.154.839.462 1.181.308.342.736.513 1.283.513Z" fill="#111"/><path d="M191.826 10.057c-1.129 0-2.086-.394-2.873-1.18-.787-.787-1.18-1.745-1.18-2.874s.393-2.086 1.18-2.873c.787-.821 1.744-1.232 2.873-1.232 1.129 0 2.087.41 2.874 1.232.821.787 1.231 1.744 1.231 2.873 0 1.129-.41 2.087-1.231 2.873-.787.787-1.745 1.18-2.874 1.18Zm-3.489 28.733c-1.642 0-2.976-.513-4.002-1.54-.992-1.026-1.488-2.565-1.488-4.617 0-.856.137-1.967.411-3.335l3.489-16.47h7.388l-3.694 17.444a6.343 6.343 0 0 0-.205 1.642c0 .684.154 1.18.461 1.488.343.274.89.41 1.642.41.992 0 1.916-.41 2.771-1.23.855-.856 1.471-1.95 1.847-3.284h2.155c-1.265 3.694-2.89 6.208-4.874 7.542-1.984 1.3-3.951 1.95-5.901 1.95Z" fill="#111"/><path d="M204.171 38.79c-2.497 0-4.446-.65-5.849-1.95-1.402-1.334-2.104-3.404-2.104-6.208 0-2.36.462-4.96 1.386-7.8.923-2.838 2.428-5.284 4.515-7.337 2.087-2.086 4.738-3.13 7.953-3.13 3.763 0 5.644 1.642 5.644 4.926 0 1.916-.547 3.677-1.642 5.285-1.095 1.608-2.548 2.908-4.361 3.9a14.32 14.32 0 0 1-5.798 1.642c-.069.752-.103 1.265-.103 1.539 0 2.839 1.061 4.258 3.181 4.258.958 0 1.984-.256 3.079-.77a12.407 12.407 0 0 0 2.976-1.949c-.924 5.062-3.883 7.594-8.877 7.594Zm.103-13.135c1.3-.035 2.514-.462 3.643-1.283a9.038 9.038 0 0 0 2.771-3.13c.718-1.3 1.077-2.651 1.077-4.053 0-1.403-.427-2.104-1.283-2.104-1.197 0-2.394 1.095-3.591 3.284-1.163 2.155-2.036 4.583-2.617 7.286Zm42.433 13.699c-1.368 0-2.565-.29-3.592-.872-.992-.547-1.488-1.522-1.488-2.925 0-.89.223-1.881.668-2.976.615.684 1.18 1.163 1.693 1.437.547.274 1.129.41 1.744.41 1.711 0 2.976-.957 3.797-2.873.855-1.915 1.283-4.036 1.283-6.362 0-4.344-1.625-6.516-4.875-6.516-.923 0-1.71.05-2.36.154l-4.207 19.65h-7.389l6.978-32.632 7.594-1.026-2.411 11.39h.308c1.299 0 2.514-.41 3.642-1.23a9.765 9.765 0 0 0 2.72-3.182c.684-1.3 1.026-2.6 1.026-3.9 0-1.573-.564-2.89-1.693-3.95-1.095-1.06-2.788-1.59-5.08-1.59-2.086 0-4.122.478-6.106 1.436-1.984.923-3.608 2.326-4.874 4.207-1.231 1.882-1.847 4.156-1.847 6.824 0 1.266.12 2.155.359 2.668.24.48.359.753.359.821-1.813 0-3.181-.359-4.104-1.077-.924-.753-1.386-1.967-1.386-3.643 0-2.326.872-4.532 2.617-6.619 1.744-2.087 4.053-3.763 6.927-5.028 2.873-1.3 5.9-1.95 9.081-1.95 2.395 0 4.413.376 6.055 1.129 1.642.752 2.856 1.744 3.643 2.976a7.155 7.155 0 0 1 1.231 4.053c0 1.574-.444 3.096-1.334 4.567-.889 1.47-2.155 2.668-3.797 3.591 2.053.377 3.575 1.334 4.567 2.874.992 1.505 1.488 3.3 1.488 5.387 0 1.95-.376 4.07-1.129 6.362a14.122 14.122 0 0 1-3.643 5.952c-1.676 1.642-3.831 2.463-6.465 2.463Zm18.093-.564c-1.642 0-2.976-.513-4.002-1.54-.992-1.026-1.488-2.565-1.488-4.617 0-.856.137-1.967.41-3.335l5.491-25.706 7.593-1.027-5.9 27.707a6.343 6.343 0 0 0-.206 1.642c0 .684.154 1.18.462 1.488.342.274.89.41 1.642.41.992 0 1.916-.41 2.771-1.23.855-.856 1.471-1.95 1.847-3.284h2.155c-1.266 3.694-2.89 6.208-4.874 7.542-1.984 1.3-3.951 1.95-5.901 1.95Z" fill="#111"/><path d="M280.891 38.687c-2.532 0-4.533-.65-6.003-1.95-1.471-1.3-2.207-3.352-2.207-6.157 0-2.326.479-4.908 1.437-7.747.958-2.84 2.497-5.285 4.618-7.338 2.12-2.086 4.789-3.13 8.004-3.13 4.378 0 6.568 2.737 6.568 8.21v.051c.102.034.29.052.564.052 1.129 0 2.429-.291 3.899-.873a20.451 20.451 0 0 0 4.003-2.206l.461 1.385c-.992 1.06-2.291 1.967-3.899 2.72-1.574.718-3.301 1.231-5.182 1.54-.274 3.112-.975 5.831-2.104 8.157-1.129 2.326-2.583 4.122-4.361 5.388-1.779 1.265-3.712 1.898-5.798 1.898Zm2.052-4.618c.821 0 1.642-.462 2.463-1.385.821-.958 1.539-2.24 2.155-3.848.616-1.642 1.06-3.455 1.334-5.439-.924-.205-1.385-.924-1.385-2.155 0-1.402.53-2.326 1.59-2.77-.068-1.13-.239-1.9-.513-2.31-.274-.444-.752-.667-1.437-.667-1.128 0-2.223.821-3.283 2.463-1.061 1.642-1.916 3.609-2.566 5.9-.65 2.293-.975 4.31-.975 6.055 0 1.642.188 2.754.565 3.335.376.548 1.06.821 2.052.821Z" fill="#111"/><path d="M304.978 51.31c-1.608 0-3.027-.531-4.259-1.591-1.197-1.026-1.796-2.343-1.796-3.951 0-1.505.377-2.737 1.129-3.694.753-.958 1.728-1.71 2.925-2.258 1.197-.547 2.805-1.129 4.823-1.745l.462-2.154c-1.779 1.915-3.831 2.873-6.157 2.873-1.95 0-3.575-.667-4.875-2.001-1.3-1.334-1.949-3.42-1.949-6.26 0-2.531.496-5.182 1.487-7.953 1.027-2.805 2.532-5.165 4.516-7.08 2.018-1.95 4.412-2.925 7.183-2.925 1.402 0 2.446.24 3.13.718.684.479 1.026 1.112 1.026 1.899v.102l.513-2.463h7.44l-6.26 29.76c-.684 3.283-1.898 5.558-3.643 6.824-1.71 1.265-3.608 1.898-5.695 1.898Zm.462-17.497c.786 0 1.573-.325 2.36-.975.821-.684 1.402-1.642 1.744-2.873l2.617-12.417c-.273-1.197-.975-1.796-2.103-1.796-1.369 0-2.6.804-3.695 2.411-1.094 1.574-1.949 3.49-2.565 5.747-.616 2.224-.924 4.19-.924 5.9 0 1.711.24 2.806.719 3.284a2.61 2.61 0 0 0 1.847.719Zm-1.642 12.93c.616 0 1.197-.325 1.744-.975.548-.616.975-1.625 1.283-3.027l.616-3.028c-1.813.616-3.216 1.334-4.208 2.155-.992.821-1.488 1.882-1.488 3.181 0 .411.206.787.616 1.13.411.376.89.564 1.437.564Z" fill="#111"/></svg>
